<svg width="120" height="120" viewBox="0 0 120 120" fill="none" xmlns="http://www.w3.org/2000/svg">
<rect width="120" height="120" rx="60" fill="#E8E9F4"/>
<path d="M60 46C60 53.732 53.732 60 46 60C38.268 60 32 53.732 32 46C32 38.268 38.268 32 46 32C53.732 32 60 38.268 60 46Z" fill="#111111"/>
<path d="M88 46C88 53.732 81.732 60 74 60C66.268 60 60 53.732 60 46C60 38.268 66.268 32 74 32C81.732 32 88 38.268 88 46Z" fill="#3B7CF3"/>
<path d="M88 74C88 81.732 81.732 88 74 88C66.268 88 60 81.732 60 74C60 66.268 66.268 60 74 60C81.732 60 88 66.268 88 74Z" fill="#111111"/>
<path d="M60 74C60 81.732 53.732 88 46 88C38.268 88 32 81.732 32 74C32 66.268 38.268 60 46 60C53.732 60 60 66.268 60 74Z" fill="#3B7CF3"/>
</svg>
