<svg width="120" height="120" viewBox="0 0 120 120" fill="none" xmlns="http://www.w3.org/2000/svg">
<rect width="120" height="120" rx="60" fill="#E8E9F4"/>
<path d="M34.4004 60C37.7622 60 41.0912 60.6622 44.1971 61.9487C47.303 63.2352 50.1251 65.1209 52.5023 67.4981C54.8795 69.8752 56.7652 72.6974 58.0517 75.8033C59.3382 78.9092 60.0004 82.2382 60.0004 85.6L34.4004 85.6L34.4004 60Z" fill="#3B7CF3"/>
<path d="M85.602 60C82.2401 60 78.9112 60.6622 75.8053 61.9487C72.6993 63.2352 69.8772 65.1209 67.5 67.4981C65.1228 69.8752 63.2372 72.6974 61.9506 75.8033C60.6641 78.9092 60.002 82.2382 60.002 85.6H85.602L85.602 60Z" fill="#3B7CF3"/>
<path d="M34.4004 60.0004C37.7622 60.0004 41.0912 59.3382 44.1971 58.0517C47.303 56.7652 50.1251 54.8795 52.5023 52.5023C54.8795 50.1251 56.7652 47.303 58.0517 44.1971C59.3382 41.0912 60.0004 37.7622 60.0004 34.4004L34.4004 34.4004L34.4004 60.0004Z" fill="#111111"/>
<path d="M85.6019 60.0004C82.2401 60.0004 78.9112 59.3382 75.8053 58.0517C72.6993 56.7652 69.8772 54.8795 67.5 52.5023C65.1228 50.1251 63.2372 47.303 61.9506 44.1971C60.6641 41.0912 60.002 37.7622 60.002 34.4004L85.602 34.4004L85.6019 60.0004Z" fill="#111111"/>
</svg>
