<svg width="200" height="50" viewBox="0 0 200 50" fill="none" xmlns="http://www.w3.org/2000/svg">
<g opacity="0.6">
<g clip-path="url(#clip0_732_11207)">
<path d="M164.762 16.7585C162.877 15.6467 160.039 15.1232 158.025 15.1232C152.696 15.1232 150.226 17.5211 150.226 20.9443C150.226 23.8874 152.436 25.6747 154.84 26.6116C156.032 27.0479 157.353 27.5059 158.35 27.7896C159.953 28.2469 160.581 29.0102 160.581 30.122C160.581 31.5175 159.606 32.3456 157.071 32.3456C155.338 32.3456 153.064 31.6479 151.44 30.7103L149.923 34.1113C152.002 35.3103 154.797 35.9425 157.115 35.9425C162.097 35.9425 165 33.4358 165 29.9693C165 26.6777 163.267 25.522 161.317 24.6723C160.56 24.367 159.151 23.909 158.414 23.6908C155.923 22.9931 154.58 22.3609 154.58 20.7046C154.58 19.4833 155.382 18.5242 158.112 18.5242C160.083 18.5242 162.011 19.2003 163.332 19.9629L164.762 16.7585ZM144.291 15.4069V31.8222H143.792L138.029 15.4069H130.231V35.5723H134.455V18.895H134.997L140.694 35.5723H148.493V15.4069H144.291ZM128.823 17.7832C127.09 15.8426 124.252 15.1016 121.696 15.1016C115.782 15.1016 112.186 18.6552 112.186 25.5004C112.186 32.0403 114.958 35.8993 121.652 35.8993C124.144 35.8993 126.765 35.3103 128.541 34.264L127.545 30.9069C126.115 31.6263 123.971 32.1058 121.956 32.1058C117.753 32.1058 116.648 29.4026 116.648 25.4565C116.648 20.8572 118.684 18.6552 121.869 18.6552C123.754 18.6552 125.335 19.4833 126.397 20.5958L128.823 17.7832Z" fill="white"/>
<path d="M50.4023 10C58.9161 10 65.8047 16.954 65.8047 25.5C65.8047 34.0676 58.9161 41 50.4023 41C41.9102 40.9999 35.0215 34.0676 35 25.5C35 16.9324 41.9102 10.0001 50.4023 10ZM50.4023 12.5293C43.2969 12.5294 37.5127 18.3495 37.5127 25.5C37.5127 28.9664 38.8559 32.2143 41.2822 34.6777C43.708 37.1195 46.9577 38.4707 50.4023 38.4707C53.847 38.4707 57.0745 37.1195 59.5225 34.6777C61.9489 32.2365 63.292 28.9665 63.292 25.5V24.9121H54.1064V26.1104H62.0781V26.2852C61.6665 32.3892 56.5976 37.25 50.4238 37.25C47.3041 37.25 44.3802 36.0293 42.1699 33.8057C39.9394 31.6043 38.7256 28.6389 38.7256 25.5C38.7256 22.3604 39.9398 19.417 42.1494 17.1934C44.3584 14.9706 47.2828 13.75 50.4023 13.75C50.5324 13.75 50.8784 13.7499 51.0303 13.7715V12.5508C50.8784 12.5507 50.576 12.5293 50.4023 12.5293ZM49.7959 32.2793H54.1064V31.0811H51.0303V18.6982H49.7959V32.2793ZM45.5068 18.6982C45.265 18.6981 45.0252 18.7458 44.8018 18.8389C44.5783 18.9319 44.3751 19.0682 44.2041 19.2402C44.0331 19.4124 43.8971 19.6169 43.8047 19.8418C43.7123 20.0667 43.6648 20.3083 43.665 20.5518C43.6649 20.795 43.7132 21.036 43.8057 21.2607C43.8981 21.4855 44.0331 21.6903 44.2041 21.8623C44.3751 22.0344 44.5783 22.1706 44.8018 22.2637C45.0252 22.3567 45.265 22.4045 45.5068 22.4043C45.7484 22.4044 45.9877 22.3566 46.2109 22.2637C46.4343 22.1707 46.6377 22.0343 46.8086 21.8623C46.9796 21.6902 47.1155 21.4856 47.208 21.2607C47.3004 21.036 47.3478 20.795 47.3477 20.5518C47.3479 20.3083 47.3004 20.0667 47.208 19.8418C47.1156 19.617 46.9795 19.4123 46.8086 19.2402C46.6378 19.0684 46.4351 18.9319 46.2119 18.8389C45.9885 18.7458 45.7486 18.6981 45.5068 18.6982Z" fill="white"/>
<path d="M97.1935 27.8982H100.963V31.4302C100.27 31.6916 98.9051 31.953 97.6271 31.953C93.4676 31.953 92.0815 29.8165 92.0815 25.5003C92.0815 21.3799 93.4025 18.9381 97.562 18.9381C99.8797 18.9381 101.201 19.6797 102.285 21.0746L105.166 18.4153C103.411 15.8863 100.335 15.123 97.4539 15.123C90.9767 15.123 87.5541 18.6767 87.5541 25.4786C87.5541 32.2367 90.6297 35.8985 97.4109 35.8985C100.53 35.8985 103.563 35.0926 105.209 33.9369V24.1487H97.172V27.8982H97.1935ZM77.4154 15.4067H72.7793V35.5722H87.0118V31.6477H77.4154V15.4067Z" fill="white"/>
</g>
</g>
<defs>
<clipPath id="clip0_732_11207">
<rect width="130" height="31" fill="white" transform="translate(35 10)"/>
</clipPath>
</defs>
</svg>
