<svg width="200" height="50" viewBox="0 0 200 50" fill="none" xmlns="http://www.w3.org/2000/svg">
<g opacity="0.6">
<g clip-path="url(#clip0_732_11203)">
<path d="M107.058 33.337C107.058 33.4966 107.11 33.589 107.207 33.589C107.286 33.5806 107.357 33.547 107.418 33.505L134.848 16.5118C135.311 16.2026 135.867 16.0436 136.432 16.0582H142.46C143.384 16.0582 144.009 16.6462 144.009 17.5282V28.5154C144.009 29.8426 143.701 30.6154 142.469 31.321L135.156 35.521C135.083 35.5694 134.998 35.5983 134.91 35.605C134.822 35.605 134.734 35.5378 134.734 35.2942V22.4758C134.734 22.3246 134.69 22.2238 134.584 22.2238C134.507 22.2323 134.434 22.2614 134.373 22.3078L114.326 34.7398C113.869 35.0338 113.332 35.1934 112.786 35.185H99.4984C98.5656 35.185 97.9496 34.597 97.9496 33.7066V17.8726C97.9496 17.755 97.8968 17.6458 97.7912 17.6458C97.7142 17.6552 97.6412 17.6842 97.58 17.7298L84.3536 25.3066C84.2216 25.3906 84.1864 25.4494 84.1864 25.5082C84.1864 25.5586 84.2128 25.609 84.3008 25.7014L93.752 34.7146C93.8752 34.8322 93.9632 34.9246 93.9632 35.0254C93.9632 35.1094 93.8224 35.1766 93.6552 35.1766H85.1192C84.4504 35.1766 83.9312 35.0842 83.5704 34.7398L77.8416 29.2798C77.8199 29.2551 77.793 29.2348 77.7628 29.2203C77.7325 29.2059 77.6994 29.1976 77.6656 29.1958C77.6035 29.1986 77.543 29.2159 77.4896 29.2462L67.9152 34.7398C67.3344 35.0758 66.9384 35.1682 66.3664 35.1682H57.5576C56.616 35.1766 56 34.5802 56 33.6982V22.921C56 21.5854 56.308 20.821 57.5488 20.1154L64.9056 15.8986C64.9633 15.8626 65.0303 15.8422 65.0992 15.8398C65.2136 15.8398 65.2752 15.949 65.2752 16.1926V30.6238C65.2752 30.775 65.3104 30.8422 65.4248 30.8422C65.504 30.8338 65.5744 30.8002 65.6448 30.7582L90.496 16.4866C90.9712 16.1758 91.552 16.0246 92.1328 16.0498H105.509C106.433 16.0498 107.058 16.6378 107.058 17.5198L107.049 33.337H107.058Z" fill="white"/>
</g>
</g>
<defs>
<clipPath id="clip0_732_11203">
<rect width="88" height="21" fill="white" transform="translate(56 15)"/>
</clipPath>
</defs>
</svg>
