<svg width="200" height="50" viewBox="0 0 200 50" fill="none" xmlns="http://www.w3.org/2000/svg">
<g opacity="0.6">
<g clip-path="url(#clip0_732_11212)">
<path d="M156.582 26.772H151.921V33.0475H139.502V36.8606H169.001V33.0475H156.582V26.772ZM117.245 31.1458C114.188 31.1458 111.695 28.7336 111.695 25.7555C111.695 22.7795 114.188 20.3539 117.245 20.3539C120.314 20.3539 122.807 22.7795 122.807 25.7555C122.807 28.7335 120.314 31.1458 117.245 31.1458ZM117.245 15.906C111.664 15.906 107.115 20.325 107.115 25.7556C107.115 31.1812 111.664 35.6056 117.245 35.6056C122.836 35.6056 127.384 31.1812 127.384 25.7556C127.384 20.325 122.836 15.906 117.245 15.906ZM135.441 14.6211H130.778V36.8915H135.441V14.6211Z" fill="white"/>
<path d="M154.252 20.0068L143.042 29.7176L139.713 26.5211L154.252 14.1348L168.53 26.5211V26.5219L165.462 29.7176L154.252 20.0068ZM90.8672 15.5886H72.9922V27.2494C72.9922 32.6794 75.8935 35.9226 81.8276 35.9226H90.8672V31.7049H81.8276C78.679 31.542 77.6159 30.0929 77.6159 27.1669V19.8067H90.8672V15.5886ZM99.5319 14.6208H94.8713V36.8912H99.5319V27.1979H103.848V22.8643H99.5319V14.6208Z" fill="white"/>
<path d="M62.8965 41.0117H31.002V10.0117H62.8965V41.0117ZM38.8994 32.5352C38.5013 32.278 38.0337 32.1414 37.5557 32.1416C36.2126 32.1416 35.1173 33.205 35.1172 34.5117C35.1172 35.8172 36.2125 36.8828 37.5557 36.8828C38.0523 36.8827 38.5149 36.7364 38.9004 36.4873L38.8994 36.8828H39.9951V30.418H38.8994V32.5352ZM44.6406 32.5342C44.2427 32.2777 43.7754 32.1414 43.2979 32.1416C41.9551 32.1418 40.8604 33.205 40.8604 34.5117C40.8604 35.8171 41.955 36.8827 43.2979 36.8828C43.7945 36.8828 44.2565 36.7369 44.6426 36.4883V36.8828H45.7383V32.1416H44.6406V32.5342ZM46.8975 36.8828H47.9951V32.1416H46.8975V36.8828ZM51.1055 32.1416C50.1125 32.1416 49.0919 32.4374 49.0918 33.585C49.0918 34.377 49.8257 34.6295 50.5596 34.7861C51.4723 34.9773 52 35.1078 52 35.4824C51.9999 35.9164 51.5354 36.0556 51.168 36.0557C50.6673 36.0557 50.2014 35.8383 50.1924 35.2988H48.9844C49.0382 36.4903 50.085 36.8828 51.1592 36.8828C52.2153 36.8828 53.2715 36.4994 53.2715 35.3164C53.2714 34.4812 52.5466 34.2199 51.8037 34.0547C51.079 33.8896 50.3626 33.8292 50.3623 33.3857C50.3623 33.0202 50.7837 32.9678 51.0703 32.9678C51.5265 32.9679 51.9016 33.0987 51.9375 33.5762H53.1465C53.0478 32.4721 52.1171 32.1417 51.1055 32.1416ZM56.3408 32.1416C54.9978 32.1417 53.9033 33.205 53.9033 34.5117C53.9033 35.8171 54.9979 36.8827 56.3408 36.8828C57.6859 36.8828 58.7812 35.8173 58.7812 34.5117C58.7811 33.2049 57.6858 32.1416 56.3408 32.1416ZM37.5557 33.2109C38.2943 33.2111 38.8945 33.7955 38.8945 34.5117C38.8945 35.2289 38.2943 35.8094 37.5557 35.8096C36.8198 35.8096 36.2188 35.229 36.2188 34.5117C36.2188 33.7953 36.8198 33.2109 37.5557 33.2109ZM43.2979 33.2109C44.0363 33.2109 44.6377 33.7953 44.6377 34.5117C44.6377 35.229 44.0363 35.8096 43.2979 35.8096C42.5618 35.8094 41.9619 35.2289 41.9619 34.5117C41.9619 33.7954 42.5618 33.2111 43.2979 33.2109ZM56.3408 33.2109C57.0797 33.2109 57.6807 33.7953 57.6807 34.5117C57.6807 35.229 57.0797 35.8096 56.3408 35.8096C55.605 35.8094 55.0039 35.2289 55.0039 34.5117C55.0039 33.7954 55.6048 33.2111 56.3408 33.2109ZM37.6875 23.0117C36.2723 23.0119 35.1172 24.1328 35.1172 25.5117C35.1173 26.8873 36.2723 28.0116 37.6875 28.0117C39.1075 28.0117 40.2607 26.8874 40.2607 25.5117C40.2607 24.1328 39.1075 23.0117 37.6875 23.0117ZM46.9482 23.0117C45.5319 23.0117 44.377 24.1328 44.377 25.5117C44.377 26.8874 45.5321 28.0117 46.9482 28.0117C48.367 28.0116 49.5194 26.8873 49.5195 25.5117C49.5197 24.1329 48.3672 23.0119 46.9482 23.0117ZM56.208 23.0117C54.7929 23.0118 53.6377 24.1328 53.6377 25.5117C53.6378 26.8873 54.7931 28.0116 56.208 28.0117C57.6278 28.0117 58.7812 26.8874 58.7812 25.5117C58.7812 24.1328 57.628 23.0117 56.208 23.0117ZM37.6875 24.1406C38.4672 24.1406 39.1006 24.7552 39.1006 25.5117C39.1005 26.2675 38.4671 26.8809 37.6875 26.8809C36.9118 26.8807 36.2784 26.2674 36.2783 25.5117C36.2783 24.7552 36.9118 24.1408 37.6875 24.1406ZM46.9482 24.1406C47.7275 24.1408 48.3604 24.7553 48.3604 25.5117C48.3604 26.2674 47.7276 26.8807 46.9482 26.8809C46.1715 26.8809 45.5382 26.2675 45.5381 25.5117C45.5381 24.7551 46.1714 24.1406 46.9482 24.1406ZM56.208 24.1406C56.9876 24.1406 57.6211 24.7552 57.6211 25.5117C57.621 26.2675 56.9875 26.8809 56.208 26.8809C55.4334 26.8808 54.7989 26.2674 54.7988 25.5117C54.7988 24.7552 55.4334 24.1407 56.208 24.1406ZM37.6875 14.0117C36.2724 14.0119 35.1174 15.1331 35.1172 16.5117C35.1172 17.8871 36.2723 19.0106 37.6875 19.0107C39.1075 19.0107 40.2607 17.8872 40.2607 16.5117C40.2605 15.1329 39.1074 14.0117 37.6875 14.0117ZM46.9482 14.0117C45.5321 14.0117 44.3772 15.1331 44.377 16.5117C44.377 17.8872 45.5321 19.0107 46.9482 19.0107C48.367 19.0106 49.5195 17.8871 49.5195 16.5117C49.5195 15.133 48.367 14.0119 46.9482 14.0117ZM56.208 14.0117C54.793 14.0118 53.6379 15.1331 53.6377 16.5117C53.6377 17.8871 54.793 19.0107 56.208 19.0107C57.6279 19.0107 58.7812 17.8872 58.7812 16.5117C58.781 15.1329 57.6279 14.0117 56.208 14.0117ZM37.6875 15.1396C38.4671 15.1396 39.1005 15.7563 39.1006 16.5117C39.1006 17.2677 38.4672 17.8799 37.6875 17.8799C36.9118 17.8798 36.2783 17.2676 36.2783 16.5117C36.2784 15.7564 36.9119 15.1398 37.6875 15.1396ZM46.9482 15.1396C47.7275 15.1398 48.3602 15.7564 48.3604 16.5117C48.3605 17.2676 47.7277 17.8797 46.9482 17.8799C46.1714 17.8799 45.5381 17.2677 45.5381 16.5117C45.5382 15.7563 46.1715 15.1396 46.9482 15.1396ZM56.208 15.1396C56.9875 15.1396 57.621 15.7563 57.6211 16.5117C57.6211 17.2677 56.9876 17.8799 56.208 17.8799C55.4334 17.8798 54.7988 17.2676 54.7988 16.5117C54.799 15.7563 55.4334 15.1397 56.208 15.1396Z" fill="white"/>
</g>
</g>
<defs>
<clipPath id="clip0_732_11212">
<rect width="138" height="31" fill="white" transform="translate(31 10)"/>
</clipPath>
</defs>
</svg>
