<svg width="200" height="50" viewBox="0 0 200 50" fill="none" xmlns="http://www.w3.org/2000/svg">
<g opacity="0.6">
<g clip-path="url(#clip0_732_11209)">
<path d="M65.9338 4.00977V11.5909C65.9338 11.9599 65.6299 12.2606 65.254 12.2606H61.1344V4.02217H58.7852V14.3257H66.165C67.2791 14.3257 68.1821 13.4358 68.1821 12.3382V4.00977H65.9338Z" fill="white"/>
<path d="M77.289 14.3241V6.74301C77.289 6.37402 76.984 6.07326 76.6093 6.07326H72.4898V14.3117H70.1406V4.00977H77.5221C78.6362 4.00977 79.5376 4.89966 79.5376 5.99729V14.3257H77.289V14.3241Z" fill="white"/>
<path d="M88.846 4H81.6348V14.2539L83.9839 14.2772L88.846 14.3268C89.9601 14.3268 90.8634 13.4369 90.8634 12.3392V5.98753C90.8634 4.88989 89.9601 4 88.846 4ZM88.6148 11.592C88.6148 11.961 88.3095 12.2617 87.935 12.2617H83.9839V6.06504H87.935C88.3111 6.06504 88.6148 6.36426 88.6148 6.73479V11.592Z" fill="white"/>
<path d="M106.251 4.07812H104.636H104.4V14.3956H104.899H106.515H106.75V4.07812H106.251Z" fill="white"/>
<path d="M99.7294 4.17578H94.6987C93.5847 4.17578 92.6816 5.06567 92.6816 6.16176V14.4901H94.93V11.0422H99.7294V14.4777H102.079V4.17578H99.7294ZM99.3927 8.97871H94.93V6.91056C94.93 6.54004 95.2339 6.23927 95.61 6.23927H99.7294V8.97718H99.3927V8.97871Z" fill="white"/>
<path d="M45.9911 4.05078H44.3751H44.1391V8.03825H43.7111H39.3493V4.05078H38.8505H37.236H37V14.3682H37.4988H39.1132H39.3493V10.1033H39.5255H44.1391V14.3682H44.6379H46.2539H46.4883V4.05078H45.9911Z" fill="white"/>
<path d="M55.404 4.03711L53.7974 6.46803L52.6487 8.20442L51.4938 6.45718L49.8919 4.03711H47.0879L51.4466 10.6276V14.3949H53.7974V10.7082L58.208 4.03711H55.404Z" fill="white"/>
<path d="M97.3745 23.0293C92.5469 23.0293 89.2031 24.6571 89.2031 30.4476V39.2831C89.2031 44.3123 92.8979 46.0007 97.3745 46.0007C102.128 46.0007 105.217 44.2781 105.547 39.2831V30.4476C105.547 25.3579 102.866 23.0293 97.3745 23.0293ZM98.8928 40.1403C98.8048 41.1465 98.5184 41.9975 97.3415 41.9975C96.1643 41.9975 95.8748 41.1465 95.7836 40.1403V29.4988C95.7836 28.3376 95.8874 26.995 97.3415 26.995C98.7953 26.995 98.8928 28.3376 98.8928 29.4988V40.1403Z" fill="white"/>
<path d="M106.428 23.2672V27.3554H108.745V41.516C108.745 45.0618 110.725 45.7392 114.21 45.7392C115.631 45.7392 116.564 45.7392 118.308 45.6245V41.7115C117.623 41.7115 117.456 41.7145 116.682 41.7145C115.836 41.7145 115.269 41.2231 115.269 40.1069V27.3538H118.308V23.2656H106.428V23.2672Z" fill="white"/>
<path d="M158.51 22.9922C155.955 22.9922 154.487 24.2852 153.829 26.1688H153.751C153.239 24.4154 151.948 22.9922 149.35 22.9922C146.952 22.9922 145.455 24.2154 144.498 26.2742H144.418V23.2914H138.217V45.7309H144.398V29.854C144.473 28.7284 144.797 28.0215 146.031 28.0215C147.184 28.0215 147.524 28.8742 147.524 29.854V45.7309H153.691V29.854C153.691 28.7672 154.177 28.0215 155.255 28.0215C156.419 28.0215 156.747 28.8974 156.747 29.854V45.7309H162.998V27.3021C162.998 24.4635 161.123 22.9937 158.509 22.9937L158.51 22.9922Z" fill="white"/>
<path d="M127.497 22.9884C122.818 23.0039 119.35 24.5636 119.35 30.1293V39.4794C119.35 44.4279 123.282 45.952 127.497 45.952C132.852 45.952 135.642 44.1473 135.642 40.1398V36.8749H129.074V39.3165C129.074 40.6282 128.902 41.9133 127.527 41.9133C126.231 41.9133 125.998 40.5351 125.998 39.3289V35.1725H135.654V29.2487C135.654 24.5775 131.963 22.9698 127.497 22.9884ZM129.079 31.4609H125.988V29.9479C125.988 28.4363 125.825 27.0441 127.538 27.0441C129.107 27.0441 129.079 28.5309 129.079 29.2999V31.4596V31.4609Z" fill="white"/>
<path d="M87.1937 25.7865C87.1937 20.5696 83.7365 19.4844 79.2032 19.4844H70.4434V45.7269H77.0555V33.7289H78.3409C79.8767 33.8342 80.4952 34.825 80.5895 36.5427C80.613 36.8264 80.6163 37.1598 80.6226 37.5071H80.6146V45.7283H87.1669V37.5071C87.162 36.5954 87.1418 35.7894 87.0912 35.2358C86.9797 33.4094 85.6784 31.735 82.0641 31.6141V31.546C85.949 30.8778 87.1937 28.5833 87.1937 25.7834V25.7865ZM78.0373 29.9755H77.0538V23.2207C77.0538 23.2207 77.6172 23.23 77.8957 23.23C80.0057 23.23 80.6524 24.2904 80.6524 26.7229C80.6524 28.5213 79.9458 29.9755 78.0373 29.9755Z" fill="white"/>
<path d="M121.857 9.46484L108.748 15.8615V22.1853L121.857 15.7917V9.46484Z" fill="white"/>
</g>
</g>
<defs>
<clipPath id="clip0_732_11209">
<rect width="126" height="42" fill="white" transform="translate(37 4)"/>
</clipPath>
</defs>
</svg>
