<svg width="200" height="50" viewBox="0 0 200 50" fill="none" xmlns="http://www.w3.org/2000/svg">
<g opacity="0.6">
<g clip-path="url(#clip0_732_11206)">
<path d="M131.769 11.5207L129.491 9.38057L124.164 15.0986L126.441 17.2383L131.769 11.5207Z" fill="white"/>
<path d="M71.4747 20.7149C71.4747 20.7149 74.4771 24.9135 80.7809 24.613V21.6137C80.7809 21.6137 74.3682 21.6879 73.8462 15.4672H69.1015C68.5827 21.6879 62.1699 21.6132 62.1699 21.6132V24.613C68.4724 24.9135 71.4747 20.7149 71.4747 20.7149ZM162.529 15.7916V24.5593C161.413 25.753 159.371 26.5529 157.025 26.5529C153.482 26.5529 150.607 24.731 150.607 22.4854C150.607 20.2375 153.482 18.4147 157.025 18.4147C158.459 18.4147 159.853 18.7134 160.918 19.2174V16.6339C159.388 16.0384 157.667 15.6931 155.757 15.6931C150.073 15.6931 145.466 18.7255 145.466 22.4663C145.466 26.2052 150.073 29.2339 155.757 29.2339C155.757 29.2339 159.446 29.4093 162.529 28.2753V35.6113H167.146V15.7911L162.529 15.7916ZM115.513 25.606H110.233C111.97 24.4338 113.033 22.8924 113.033 21.1979C113.033 17.536 108.094 14.568 102.006 14.568C95.9165 14.568 90.9816 17.536 90.9816 21.1979C90.9816 22.1172 91.2908 23.0039 91.847 23.7949H96.3485C95.8588 23.129 95.5805 22.3748 95.5805 21.5628C95.5805 18.9388 98.4568 16.8168 102.005 16.8168C105.553 16.8168 108.429 18.9388 108.429 21.5628C108.429 23.3796 106.707 24.8668 104.466 25.606H88.9346V28.7476H99.7732V35.4195H104.674V28.7476H115.512L115.513 25.606Z" fill="white"/>
<path d="M78.8894 15.3241V18.0592H82.3861V30.8832L82.3072 30.9271C81.8918 32.4965 79.9436 33.679 77.6012 33.679C74.9584 33.679 72.815 32.1679 72.815 30.3083C72.815 28.4416 74.9584 26.9375 77.6012 26.9375C78.7196 26.9375 79.9658 27.2054 80.7813 27.6609V24.8618C79.7308 24.6084 78.8008 24.4698 77.6077 24.4698C72.419 24.4698 68.2129 27.0859 68.2129 30.3148C68.2129 33.5408 72.419 36.1621 77.6077 36.1621C82.4041 36.1621 86.354 33.9189 86.924 31.0316H87.003V15.3241H82.3861H78.8894ZM141.235 15.7903H136.617V35.6096H141.236V18.931H145.099V15.7903H141.235ZM126.441 18.14L123.642 15.5402H116.357V18.6846H119.039C118.048 19.757 117.447 21.0552 117.447 22.465C117.447 26.0789 121.272 29.0095 125.995 29.0095C130.715 29.0095 134.542 26.0789 134.542 22.465C134.542 21.7113 134.377 20.939 134.071 20.2675H129.454C129.928 20.8727 130.207 21.548 130.207 22.3357C130.207 24.3956 128.301 26.0621 125.951 26.0621C123.605 26.0621 121.699 24.3961 121.699 22.3357C121.699 20.5312 123.167 19.0257 125.11 18.6846H135.439V15.5402H129.012L126.441 18.14ZM189.383 15.7903V28.94H174.493V31.6033H189.382V35.6096H194V15.7903H189.383Z" fill="white"/>
<path d="M183.068 26.3633H187.688V15.7905H183.068V19.9695H181.02V22.6402H183.068V26.3633Z" fill="white"/>
<path d="M179.442 15.6416H169.852V18.3398H179.442V15.6416Z" fill="white"/>
<path d="M181.123 26.2344V23.6378H174.598V22.5398H179.54V20.0361H169.852V26.2344H174.598H181.123Z" fill="white"/>
<path d="M19.875 22.9466C20.4947 22.5861 21.1172 22.2304 21.7424 21.8798C23.1714 20.9546 24.6302 20.0774 26.1165 19.2497C26.1719 18.9977 26.2268 18.7476 26.279 18.4956C23.9532 19.9912 21.4327 21.772 19.875 22.9466ZM61.4568 10.3518C59.4629 6.64132 50.495 7.46125 39.5596 11.8176C41.3914 11.748 42.1812 11.9249 42.5573 12.0112C50.8241 9.71945 57.7838 9.99991 59.288 13.107C60.4649 15.5374 58.2384 19.8531 54.0056 23.8496C59.8063 18.5954 62.991 13.2082 61.4568 10.3518Z" fill="white"/>
<path d="M35.4892 9.2258H35.3461C35.2967 9.22673 35.2478 9.22907 35.1965 9.23047C35.1468 9.23117 35.0971 9.23303 35.0475 9.23607C34.9976 9.237 34.9459 9.24073 34.8942 9.24307C34.843 9.244 34.7927 9.24773 34.7405 9.251C34.6882 9.25413 34.6359 9.25786 34.5836 9.2622C34.5291 9.26687 34.4765 9.27014 34.4244 9.27574C34.3699 9.28134 34.3178 9.2846 34.2628 9.2888L34.1008 9.30606C34.045 9.3126 33.9891 9.31727 33.9347 9.32473C33.8793 9.33407 33.8239 9.33873 33.768 9.3476C33.7127 9.35413 33.6554 9.36113 33.5973 9.36907C33.5419 9.37793 33.4851 9.3868 33.4274 9.398C33.3697 9.40609 33.3122 9.41512 33.2548 9.42506C33.1957 9.4344 33.1403 9.4456 33.0827 9.4554C33.0236 9.468 32.9645 9.47873 32.9068 9.4904C32.8477 9.5016 32.7896 9.51513 32.731 9.52773C32.6719 9.53986 32.6119 9.5534 32.5528 9.566C32.4937 9.5814 32.4337 9.594 32.3737 9.60986C32.3123 9.62386 32.2537 9.6402 32.1923 9.65373C32.1332 9.67053 32.0723 9.68733 32.0123 9.7032C31.9519 9.7186 31.8919 9.7368 31.8295 9.75453L31.6459 9.81099C31.5841 9.82891 31.5228 9.84852 31.4622 9.8698C31.4012 9.8866 31.3389 9.909 31.2775 9.93047C31.2152 9.95053 31.1538 9.97293 31.0906 9.9958C31.0292 10.0168 30.9683 10.0406 30.9046 10.0644C30.8437 10.0877 30.7814 10.1101 30.7191 10.1386C30.6554 10.161 30.5931 10.1881 30.5321 10.2137C30.4698 10.2385 30.4084 10.2669 30.3452 10.2935C30.2829 10.3197 30.2224 10.3491 30.1606 10.3757C30.0994 10.4053 30.0378 10.4342 29.976 10.4625L29.7918 10.5535C29.73 10.5838 29.6692 10.6162 29.6095 10.6505C29.5479 10.6812 29.4871 10.7134 29.4272 10.7471C29.3681 10.7798 29.3072 10.8148 29.2467 10.8475C29.1867 10.8811 29.1267 10.9175 29.0676 10.9506C29.0076 10.9879 28.9486 11.0215 28.8886 11.0598C28.8295 11.0948 28.7704 11.1331 28.7113 11.1713L28.5369 11.2847C28.4787 11.3244 28.4201 11.3627 28.3633 11.4019L28.1907 11.5232C28.133 11.5652 28.0762 11.6044 28.0195 11.6473L27.8515 11.771C27.797 11.8158 27.7402 11.8587 27.6853 11.9003C27.6299 11.9469 27.5745 11.9889 27.5196 12.0342C27.4651 12.0781 27.4107 12.1229 27.3562 12.1695L27.1961 12.3067C27.1425 12.3534 27.0899 12.401 27.0378 12.4481C26.9856 12.4976 26.8808 12.5914 26.8808 12.5914C26.8301 12.6409 26.7774 12.6894 26.7276 12.7398C26.6764 12.7893 26.5762 12.8882 26.5762 12.8882L26.4257 13.0403C26.3791 13.0917 26.2813 13.1929 26.2813 13.1929C26.2333 13.2447 26.1377 13.3507 26.1377 13.3507C26.0897 13.4034 25.9965 13.5093 25.9965 13.5093C25.9485 13.5607 25.858 13.6703 25.858 13.6703L25.7237 13.8346C25.6787 13.8894 25.6345 13.945 25.5913 14.0012C25.5479 14.0572 25.4634 14.1687 25.4634 14.1687C25.42 14.2247 25.3374 14.3386 25.3374 14.3386C25.294 14.3969 25.2543 14.4543 25.2142 14.5108C25.1726 14.57 25.0951 14.6872 25.0951 14.6872C25.0559 14.746 25.018 14.8039 24.9802 14.8641C24.9423 14.9233 24.868 15.0428 24.868 15.0428C24.8311 15.1025 24.7942 15.1622 24.7591 15.2229C24.7236 15.2826 24.6889 15.3443 24.6543 15.4063C24.6197 15.4661 24.5865 15.5277 24.5528 15.5897L24.4572 15.7764C24.424 15.8394 24.394 15.9014 24.3626 15.9654C24.3326 16.0284 24.3026 16.0923 24.274 16.1553C24.2449 16.2174 24.2172 16.2827 24.1891 16.3457C24.1604 16.4099 24.1333 16.4748 24.1078 16.5403C24.0811 16.6057 24.0557 16.6696 24.0312 16.734C24.0068 16.7993 23.9809 16.8656 23.9602 16.9309L23.89 17.1278C23.8688 17.1932 23.8485 17.2594 23.8277 17.3266L23.7686 17.5273C23.7506 17.5936 23.7317 17.6608 23.7151 17.7284C23.6985 17.7961 23.6805 17.8647 23.6661 17.931C23.6499 17.999 23.6346 18.0673 23.6205 18.1358C23.6071 18.2044 23.5928 18.273 23.5803 18.3412L23.5461 18.5474C23.536 18.616 23.5272 18.686 23.5171 18.7546C23.5078 18.8246 23.5005 18.8928 23.4926 18.9637C23.4861 19.0346 23.4792 19.1037 23.4737 19.1732C23.4676 19.2428 23.4631 19.3125 23.4603 19.3823C23.4557 19.4542 23.4524 19.5251 23.4501 19.5951C23.4492 19.666 23.4492 19.7356 23.4492 19.8065C23.4492 19.8784 23.4492 19.9507 23.4501 20.0202C23.4524 20.0902 23.4548 20.163 23.4603 20.233C23.4626 20.304 23.4672 20.3758 23.4728 20.4468C23.4783 20.5177 23.4848 20.5872 23.4926 20.6591C23.5005 20.7291 23.5106 20.7968 23.5203 20.8654C23.5295 20.9354 23.5415 21.0035 23.5549 21.0688C23.5663 21.1367 23.5797 21.2043 23.5951 21.2714L23.6417 21.4692C23.6597 21.5336 23.6772 21.5999 23.6938 21.662C23.7141 21.7273 23.734 21.7912 23.7552 21.8542C23.7951 21.9811 23.8398 22.1064 23.8891 22.2299C23.9131 22.2906 23.9366 22.3536 23.962 22.4133L24.0423 22.5944C24.07 22.6541 24.0977 22.7138 24.1268 22.7736C24.1545 22.8342 24.1835 22.8902 24.2145 22.95C24.2449 23.0074 24.2745 23.0666 24.3059 23.1231L24.4019 23.2958C24.4342 23.3527 24.4683 23.4124 24.502 23.4666C24.5343 23.524 24.5699 23.58 24.6036 23.635C24.6386 23.6906 24.6732 23.748 24.7097 23.8007C24.7443 23.8581 24.7812 23.9108 24.8168 23.9687C24.8537 24.021 24.8906 24.0751 24.9271 24.1316C24.964 24.1843 25.0014 24.2408 25.0406 24.2949C25.0776 24.3453 25.1163 24.4013 25.1542 24.4554C25.192 24.5068 25.2317 24.5623 25.2709 24.615L27.1171 27.0352C26.7585 26.2633 26.5047 25.4322 26.435 24.5049C26.0307 19.1597 30.2474 14.5948 34.6201 12.8443C37.9829 11.5031 41.181 11.7925 42.5587 12.0118L38.3715 9.51046C38.3715 9.51046 38.3568 9.5058 38.3281 9.49926C38.3014 9.49133 38.2603 9.48386 38.2058 9.4722C38.1523 9.46006 38.0858 9.44653 38.0064 9.433C37.9275 9.41713 37.8384 9.40173 37.7374 9.3868C37.6871 9.37746 37.6326 9.36907 37.5767 9.36113C37.5214 9.3532 37.4614 9.34433 37.4014 9.3378C37.34 9.32847 37.2754 9.32053 37.2084 9.31493C37.142 9.3056 37.0741 9.29813 37.0026 9.2916C36.9306 9.2846 36.8581 9.2776 36.7824 9.272C36.7067 9.26546 36.6287 9.258 36.5489 9.25333C36.4686 9.24727 36.3873 9.244 36.3015 9.24073C36.2184 9.23606 36.1316 9.2328 36.0426 9.23047C35.9549 9.2272 35.8635 9.2258 35.7707 9.2258C35.7255 9.22486 35.6784 9.22347 35.6318 9.22347C35.5852 9.22347 35.5372 9.2244 35.4892 9.2258Z" fill="white"/>
<path d="M26.4781 26.1938C26.4656 26.1794 26.4555 26.1645 26.4444 26.1514L26.4781 26.1938ZM26.677 26.4879C26.7204 26.5583 26.7647 26.6348 26.8062 26.717C26.8482 26.8005 26.8907 26.8906 26.9262 26.9839C26.9452 27.0296 26.9641 27.0772 26.9788 27.1253C26.9955 27.1762 27.0098 27.228 27.0232 27.2774C27.0365 27.3269 27.0485 27.3801 27.0587 27.4328C27.0679 27.4856 27.0753 27.5374 27.0832 27.5915C27.0878 27.6452 27.0924 27.7002 27.0933 27.7558C27.096 27.868 27.0878 27.9802 27.0689 28.0908C27.0589 28.1483 27.0463 28.2053 27.031 28.2616C27.0146 28.3197 26.9954 28.3768 26.9733 28.4329C26.9484 28.4889 26.9239 28.5477 26.893 28.6051C26.8612 28.6636 26.8262 28.7203 26.7882 28.775C26.7504 28.831 26.6613 28.9439 26.6613 28.9439C26.6111 29.0017 26.5587 29.0576 26.5044 29.1114C26.4452 29.1681 26.3841 29.2225 26.3211 29.2748C26.2517 29.331 26.1799 29.3843 26.1061 29.4344C26.026 29.4896 25.9436 29.5413 25.8591 29.5893C25.8143 29.6149 25.769 29.6398 25.7234 29.664C25.6768 29.6906 25.6288 29.7134 25.5799 29.7391C25.53 29.7638 25.4784 29.7876 25.4262 29.8124C25.3725 29.8375 25.318 29.8609 25.2628 29.8824C25.2074 29.9066 25.1502 29.9281 25.0916 29.9542C25.0325 29.9752 24.9716 29.9967 24.9088 30.0205C24.8456 30.0436 24.7819 30.0654 24.7177 30.0858C24.6504 30.108 24.5827 30.129 24.5146 30.1488L24.4173 30.1768C24.3255 30.2021 24.2335 30.2265 24.1413 30.2501C24.0812 30.2636 24.0152 30.2804 23.9442 30.2996C23.8703 30.315 23.7937 30.3332 23.7125 30.3532C23.6303 30.3738 23.5426 30.3929 23.4499 30.4139C23.3589 30.4344 23.262 30.4559 23.1618 30.4774C23.112 30.4862 23.0594 30.4984 23.0095 30.5086C22.9562 30.5217 22.9023 30.5323 22.848 30.5404C22.848 30.5404 22.74 30.5628 22.6855 30.573C22.6297 30.5843 22.5737 30.5944 22.5175 30.6034C22.4598 30.6147 22.4019 30.6256 22.344 30.636L22.1672 30.6664C22.1072 30.6762 22.0481 30.685 21.9877 30.6967C21.9277 30.706 21.8654 30.7144 21.8054 30.7247L21.6184 30.7518C21.5561 30.7583 21.4938 30.7676 21.4315 30.7765C21.3694 30.7853 21.3071 30.7924 21.2446 30.798C21.1809 30.8065 21.117 30.814 21.053 30.8204C20.9898 30.8269 20.9252 30.8325 20.8629 30.8404C20.7983 30.8451 20.736 30.8498 20.6713 30.8563C20.6081 30.8596 20.5444 30.8675 20.4812 30.8689C20.4166 30.8745 20.3542 30.8778 20.291 30.881L22.8812 35.8184L22.8738 35.7358L23.1531 35.7213C25.3205 35.6056 27.7266 34.9135 27.7464 34.9093C29.2543 34.4473 30.1289 33.7996 30.3481 32.9796C30.6389 31.8937 29.6637 30.8157 29.6374 30.7863L29.2441 30.2725C28.4595 29.2542 27.6596 28.2098 27.1109 27.0254L26.4781 26.1938C26.5348 26.2704 26.6045 26.3707 26.677 26.4879Z" fill="white"/>
<path d="M23.4508 41.2173C23.2828 41.2705 23.1171 41.32 22.95 41.3713L23.6022 42.6533L23.4508 41.2173ZM22.8757 35.7541L20.291 30.8802L21.0064 37.5465L22.0098 39.5196C22.416 39.4309 22.8254 39.3353 23.2426 39.234L22.8757 35.7541ZM23.9668 41.0493C24.0702 42.0349 24.1537 42.8273 24.1726 43L25.0283 42.8483L26.3613 42.6136C29.7675 42.0284 32.9845 41.4749 35.7566 39.3245C37.6489 37.8555 38.8979 36.0472 39.4596 34.1166C39.2325 34.2435 39.01 34.3709 38.7811 34.4978C33.573 37.3571 28.508 39.5616 23.9668 41.0493ZM43.3287 19.0055C43.2909 18.4539 42.9226 12.9645 42.8995 12.6056C42.1181 12.4413 38.5905 11.8361 34.815 13.3448C30.6218 15.0225 26.5791 19.3797 26.9632 24.4654C27.1279 26.6494 28.4175 28.3234 29.6641 29.9446C29.6641 29.9446 30.0578 30.4588 30.0412 30.4388C30.0837 30.4836 30.9325 31.4164 30.9325 32.556C30.9325 32.7371 30.9112 32.9247 30.86 33.116C30.5923 34.1268 29.5963 34.902 27.8969 35.4214C27.7999 35.4498 25.6034 36.0747 23.4591 36.2338C23.4812 36.4485 23.616 37.7169 23.7609 39.101C28.135 37.9768 33.05 36.1428 37.9328 33.7274C38.5371 33.4269 39.138 33.1196 39.7356 32.8057C39.7799 32.4557 39.8011 32.1071 39.8011 31.7548C39.8011 30.2708 39.4088 28.7667 38.5974 27.3322L38.0242 26.4142C37.3231 25.3362 36.4207 23.9526 36.4207 22.6235C36.4207 22.2268 36.5038 21.8339 36.6944 21.4545C37.7348 19.4026 40.8082 18.634 43.3287 19.0055Z" fill="white"/>
<path d="M38.0681 34.0099C24.1072 40.9184 10.8907 42.7995 8.72653 38.1259C7.55281 35.5896 9.70363 31.4619 14.0823 27.1536C7.97421 32.5632 4.8283 37.6508 6.40217 40.5843C8.99931 45.4175 23.4287 42.5667 38.6302 34.2218C42.9485 31.8497 46.8633 29.2914 50.1962 26.7294C50.1749 26.7061 50.1528 26.68 50.1315 26.6552C46.7655 29.2028 42.6605 31.7372 38.0681 34.0099Z" fill="white"/>
<path d="M53.1026 26.3622C53.1025 26.661 53.0442 26.9569 52.931 27.233C52.8179 27.509 52.652 27.7598 52.4429 27.971C52.2338 28.1823 51.9856 28.3498 51.7125 28.464C51.4394 28.5782 51.1467 28.6369 50.8511 28.6367C50.2545 28.6367 49.6823 28.3971 49.2605 27.9705C48.8386 27.544 48.6016 26.9654 48.6016 26.3622C48.6015 26.0635 48.6596 25.7676 48.7727 25.4916C48.8857 25.2156 49.0514 24.9648 49.2603 24.7536C49.4692 24.5423 49.7172 24.3747 49.9902 24.2604C50.2631 24.146 50.5557 24.0872 50.8511 24.0872C51.1467 24.087 51.4395 24.1457 51.7126 24.26C51.9858 24.3742 52.234 24.5418 52.4431 24.753C52.6522 24.9643 52.818 25.2152 52.9312 25.4913C53.0443 25.7674 53.1026 26.0633 53.1026 26.3622Z" fill="white"/>
</g>
</g>
<defs>
<clipPath id="clip0_732_11206">
<rect width="188" height="35" fill="white" transform="translate(6 8)"/>
</clipPath>
</defs>
</svg>
