<svg width="200" height="50" viewBox="0 0 200 50" fill="none" xmlns="http://www.w3.org/2000/svg">
<g opacity="0.6">
<g clip-path="url(#clip0_732_11202)">
<path fill-rule="evenodd" clip-rule="evenodd" d="M179.099 19.8279H171.648C170.399 19.8996 170.049 20.2064 170.049 21.6975V25.8095H179.099V19.8279ZM183.068 16.5361V34.4664H179.102V29.3135H170.051V34.4664H166.085V20.41C166.085 17.9268 167.11 16.5361 170.051 16.5361H183.068ZM162.116 20.4043V30.1078C162.116 33.1961 160.351 34.4606 158.15 34.4606H145.639V16.5332H158.15C161.53 16.5332 162.116 18.6437 162.116 20.4072M158.103 21.4853C158.103 20.5018 157.493 19.8251 156.428 19.8251H149.608V31.0283H156.428C157.981 30.9509 158.103 30.0361 158.103 29.3078V21.4853ZM64.7773 16.5332H68.7435V23.5987H77.6185V16.5332H81.5847V34.4606H77.6185V27.1429H68.7435V34.4606H64.7773V16.5332ZM88.3846 16.5332L93.3577 23.8625L98.2694 16.5332H103.088L95.3393 27.9945V34.4606H91.3731V27.9945L83.5721 16.5332H88.3876H88.3846ZM125.355 16.5332H138.138C139.959 16.5332 141.725 16.7855 141.673 20.4072V34.4635H137.706V21.6947C137.706 20.152 137.517 19.8251 136.285 19.8251H129.325V34.4606H125.358V16.5332H125.355ZM191 34.4635H187.034V16.5361H191V34.4664V34.4635ZM105.072 34.4606H117.855C120.397 34.4606 121.442 33.738 121.389 30.1394V16.5332H117.423V29.3307C117.423 30.8648 117.233 31.0512 116.002 31.0512H109.041V16.5332H105.075V34.4606H105.072Z" fill="white"/>
<path fill-rule="evenodd" clip-rule="evenodd" d="M36.7784 28.1561C37.1286 29.931 36.1801 31.4078 35.3951 32.8387C34.5195 34.1692 33.0778 35.3161 31.3413 35.1441C27.4481 35.0868 23.6454 34.4989 20.117 33.4552C19.9565 33.4121 19.796 33.3118 19.7084 33.1684C19.6355 32.9677 19.7376 32.7813 19.8835 32.6523C23.1055 30.0887 26.9374 28.8987 30.7285 27.6543C32.1439 27.2528 33.644 26.8227 35.2316 27.0234C35.8883 27.1094 36.5449 27.5539 36.7755 28.1561M50.0573 20.5659C51.8638 22.0254 53.4982 24.0183 52.9437 26.4241C52.039 29.9769 48.1049 31.8666 44.9705 33.0681C43.2661 33.6272 41.5442 34.2007 39.6793 34.3699C39.5626 34.3555 39.3729 34.3842 39.3437 34.2122L39.3875 34.0114C42.0404 31.0752 44.0512 27.7833 45.8168 24.4456C46.634 22.943 47.3899 21.3946 48.0903 19.8777C48.1924 19.763 48.2946 19.7056 48.4113 19.6626C49.068 19.72 49.532 20.2218 50.0573 20.5659ZM24.6202 16.7865L24.5618 17.0016C20.7299 21.2827 18.2054 26.2521 15.8152 31.1956C15.3483 31.6257 14.8959 31.0522 14.4727 30.8658C12.3452 29.4923 10.4219 27.27 10.9735 24.6348C11.8636 21.1967 15.4621 19.3644 18.4652 18.1199C20.2425 17.4604 22.0957 16.9299 24.0481 16.6288C24.2524 16.6288 24.5151 16.6002 24.6172 16.7865M43.6426 17.4719C43.8615 17.5866 44.1241 17.6296 44.2555 17.8446C44.3722 18.0884 44.1387 18.2461 44.0074 18.4038C40.9897 20.7236 37.5343 22.0139 34.0088 23.1437C32.2169 23.5738 30.4074 24.3452 28.4112 23.9179C27.9443 23.8032 27.5211 23.5022 27.2584 23.0577C26.7623 21.7129 27.4335 20.3078 28.0172 19.1321C28.7906 17.6582 30.1594 15.9234 32.0564 15.8948C36.1363 15.8661 39.9858 16.4682 43.6455 17.4719M48.6857 17.5866C51.7763 19.2468 55.2755 22.1688 54.9107 26.0657C54.4875 29.6758 51.0613 32.1963 47.9998 33.7132C39.0635 37.9083 26.5142 38.0374 17.2861 34.3728C14.1663 33.0996 10.6671 30.906 9.3567 27.6141C8.34984 24.9072 9.57558 22.0856 11.6302 20.2103C15.932 16.3708 21.4128 15.0517 27.0541 14.2947C33.177 13.5635 39.6181 14.2087 45.0989 16.0553C46.3246 16.4998 47.5329 16.9873 48.6857 17.5866Z" fill="white"/>
</g>
</g>
<defs>
<clipPath id="clip0_732_11202">
<rect width="182" height="23" fill="white" transform="translate(9 14)"/>
</clipPath>
</defs>
</svg>
