<svg width="200" height="50" viewBox="0 0 200 50" fill="none" xmlns="http://www.w3.org/2000/svg">
<g opacity="0.6">
<g clip-path="url(#clip0_732_11208)">
<path d="M62.5353 33.8722V30.4175L58.7466 30.4167L58.7403 34.9775C58.739 35.1066 58.7628 35.2346 58.8103 35.3544C58.8578 35.4741 58.928 35.5831 59.017 35.6753C59.1059 35.7674 59.2119 35.8408 59.3288 35.8914C59.4457 35.9419 59.5712 35.9686 59.6983 35.9698L77.1284 35.9746C77.656 35.9746 78.0864 35.5302 78.0864 34.9831L78.0833 33.8738L62.5353 33.8722Z" fill="white"/>
<path d="M60.6793 24.0096C60.6793 22.0848 62.3091 20.5255 64.3176 20.5255C66.3284 20.5255 67.9535 22.0864 67.9535 24.0112C67.9535 25.9353 66.326 27.4954 64.3168 27.4954C62.3075 27.4946 60.6793 25.9345 60.6793 24.0096ZM71.5032 22.8437H74.1482L74.1474 25.1803L71.4569 25.1787C71.5875 24.7817 71.6552 24.3661 71.6576 23.9475C71.6576 23.5684 71.6035 23.2005 71.5032 22.8437ZM70.0693 27.2843L74.1474 27.2851L74.1466 31.6445H77.9362L77.9401 17.5605C77.9401 17.0118 77.5113 16.5691 76.9821 16.5691L74.1482 16.5627V20.7381L70.201 20.7373C69.6877 20.2374 69.1008 19.8217 68.4615 19.5053L70.7286 19.5061C70.8556 19.5051 70.9811 19.4786 71.098 19.4281C71.2148 19.3777 71.3207 19.3043 71.4096 19.2122C71.4984 19.12 71.5685 19.011 71.6158 18.8913C71.6631 18.7716 71.6866 18.6436 71.685 18.5146L71.6858 17.3909L66.2092 17.3965L66.2029 16.7849C66.2029 16.2378 65.7765 15.7926 65.2473 15.7926L62.4173 15.787V17.3965L56.9344 17.3957L56.9336 19.5005L60.1917 19.5013C58.2608 20.4705 56.9924 22.0975 56.9916 23.9443C56.99 26.9148 60.274 29.3247 64.3246 29.3255C66.6545 29.3255 68.7257 28.5267 70.0693 27.2843Z" fill="white"/>
<path d="M80.9258 33.0063C80.9258 33.6147 81.353 34.1109 81.8791 34.1109L90.5887 34.1133C91.1139 34.1133 91.5412 33.6163 91.5412 33.0087L91.5388 32.0156L84.7044 32.014L84.7075 19.123L89.9576 19.1262C90.4844 19.1262 90.9101 18.6324 90.9101 18.0224L90.9116 16.9975H80.9352L80.9258 33.0063Z" fill="white"/>
<path d="M102.02 17.7041C102.02 17.0924 101.594 16.5915 101.066 16.5915L98.2418 16.5931L98.241 22.9076L96.2278 22.9068L96.231 17.7025C96.2317 17.0908 95.8045 16.5891 95.2769 16.5891L92.4531 16.5915L92.4492 35.973H96.2239L96.2278 25.0148L98.2394 25.0069L98.2457 35.973L102.018 35.9746L102.02 17.7041Z" fill="white"/>
<path d="M113.547 35.9746H117.337L117.335 29.8281L125.483 29.8313C126.01 29.8313 126.439 29.387 126.439 28.8382L126.441 27.7146L104.432 27.7122V29.8258L113.547 29.8274V35.9746Z" fill="white"/>
<path d="M109.459 19.1185L121.353 19.1209V23.677L109.456 23.6746L109.459 19.1185ZM105.678 24.6677C105.678 25.2761 106.106 25.7715 106.632 25.7715H125.141L125.144 17.9845C125.144 17.4382 124.715 16.993 124.187 16.993H105.686L105.678 24.6677Z" fill="white"/>
<path d="M153.818 28.3627C155.639 28.0298 158.292 27.0184 159.806 26.2324C161.283 25.4503 162.471 24.5281 163.341 23.4872C164.212 24.5281 165.399 25.4503 166.879 26.2332C168.39 27.0184 171.043 28.0298 172.866 28.3627L173.038 28.3945L174.999 26.1894L174.504 26.0556C171.784 25.3149 169.661 24.2948 168.192 23.0229C167.127 22.0952 166.366 20.9954 165.936 19.7673C165.754 19.152 165.637 18.5188 165.586 17.8783C165.573 17.7119 165.557 17.4371 165.544 17.2157L165.509 16.6408H161.177L161.136 17.2667C161.125 17.4707 161.113 17.6746 161.098 17.8783C161.047 18.5138 160.931 19.1421 160.752 19.753C160.318 20.9962 159.556 22.096 158.49 23.0222C157.023 24.2948 154.9 25.3149 152.181 26.0556L151.686 26.1894L153.646 28.3945L153.818 28.3627Z" fill="white"/>
<path d="M152.139 35.969L173.503 35.9746C174.203 35.9746 174.772 35.3877 174.773 34.6646L174.775 33.2223L152.139 33.2183V35.969Z" fill="white"/>
<path d="M145.899 35.9746H149.689L149.695 29.1018L129.596 29.1011L129.6 31.1995L145.899 31.2035L145.899 35.9746Z" fill="white"/>
<path d="M149.935 17.738C149.935 17.1288 149.51 16.6263 148.982 16.6263L146.158 16.6287L146.161 27.3304L149.934 27.332L149.935 17.738Z" fill="white"/>
<path d="M132.652 21.7333H134.576V24.343L132.652 24.3422V21.7333ZM129.817 26.4391H138.362L138.365 22.8036H140.571V27.2992L144.36 27.3008L144.363 23.7027V21.4522L144.363 17.5499C144.363 17.0386 143.935 16.6237 143.405 16.6237L140.573 16.6261V20.698H138.365L138.366 18.0333C138.369 17.7726 138.269 17.5215 138.09 17.3353C137.91 17.1491 137.665 17.043 137.408 17.0402L134.576 17.0386V19.6269H132.652L132.653 18.0333C132.654 17.9042 132.631 17.7762 132.583 17.6564C132.536 17.5367 132.466 17.4276 132.377 17.3354C132.288 17.2431 132.182 17.1696 132.065 17.119C131.948 17.0683 131.823 17.0416 131.696 17.0402L128.863 17.0386V25.3345C128.863 25.943 129.29 26.4391 129.817 26.4391Z" fill="white"/>
<path d="M37.5008 14L25 36H27.9453L38.9714 16.5874L37.5008 14Z" fill="white" fill-opacity="0.7"/>
<path d="M27.9453 36L40.4429 14L52.9413 36H27.9453Z" fill="white"/>
</g>
</g>
<defs>
<clipPath id="clip0_732_11208">
<rect width="150" height="22" fill="white" transform="translate(25 14)"/>
</clipPath>
</defs>
</svg>
