<svg width="81" height="80" viewBox="0 0 81 80" fill="none" xmlns="http://www.w3.org/2000/svg">
<path d="M53.525 51.3237C48.1674 46.9116 25.9488 46.7278 15.5093 47.1874V63.1757C31.0352 72.0211 39.7691 73.658 42.1953 73.3708C59.6563 70.6138 71.2969 65.4253 74.9346 63.1757C75.2792 61.108 71.831 60.4154 70.0638 60.3276C49.6252 61.1508 41.186 58.0753 39.5212 56.4347C46.4953 55.4947 50.5104 55.66 51.3921 55.4947C57.1025 55.4947 54.9741 52.4763 53.525 51.3237Z" fill="#E1E2ED"/>
<rect x="6.16406" y="45.4375" width="10.6154" height="21.4731" fill="#111111"/>
<path d="M51.5547 11.8105C52.6122 12.1082 53.6182 12.5291 54.5566 13.0557L58.2432 9.37109L63.5547 14.6836L59.8682 18.3691C60.3944 19.3071 60.8147 20.3123 61.1123 21.3691H66.3252V28.8818H61.1123C60.8145 29.9394 60.3939 30.9452 59.8672 31.8838L63.5547 35.5713L58.2422 40.8838L54.5537 37.1953C53.6159 37.7213 52.6113 38.142 51.5547 38.4395V43.6533H44.042V38.4395C42.9851 38.1418 41.98 37.7215 41.042 37.1953L37.3545 40.8838L32.042 35.5713L35.7285 31.8838C35.202 30.9454 34.7821 29.9392 34.4844 28.8818H29.2715V21.3691H34.4844C34.7819 20.3125 35.2015 19.307 35.7275 18.3691L32.042 14.6836L37.3545 9.37109L41.0391 13.0557C41.9777 12.5289 42.9843 12.1084 44.042 11.8105V6.59961H51.5547V11.8105ZM47.7979 18.3672C44.0641 18.3674 41.0373 21.3942 41.0371 25.1279C41.0371 28.8619 44.064 31.8894 47.7979 31.8896C51.5319 31.8896 54.5596 28.862 54.5596 25.1279C54.5594 21.394 51.5318 18.3672 47.7979 18.3672Z" fill="#3B7CF3"/>
</svg>
