<svg width="81" height="81" viewBox="0 0 81 81" fill="none" xmlns="http://www.w3.org/2000/svg">
<path d="M32.5615 67.4727C32.5615 71.8873 36.1443 75.4727 40.5615 75.4727C44.9787 75.4727 48.5615 71.8873 48.5615 67.4727" fill="#E1E2ED"/>
<path d="M53.153 55.0311V50.4558C60.0487 46.1975 64.5451 38.5325 64.5451 29.7522C64.5451 16.3689 53.8184 5.5 40.5714 5.5C27.3244 5.5 16.5776 16.3486 16.5776 29.7522C16.5776 38.5325 21.0538 46.1975 27.9696 50.4558V55.0311" fill="#E1E2ED"/>
<path d="M24.3486 29.3246C24.3486 29.3246 24.6787 36.7389 30.2687 40.5337C34.12 43.1441 38.7416 43.0783 40.5903 40.3363C42.4389 37.6163 40.7883 33.2949 36.937 30.6627C31.281 26.8239 25.8452 29.0833 24.3486 29.3026V29.3246Z" fill="#3B7CF3"/>
<path d="M57.3486 29.3246C57.3486 29.3246 57.0185 36.7389 51.4286 40.5337C47.5772 43.1441 42.9556 43.0783 41.107 40.3363C39.2584 37.6163 40.9089 33.2949 44.7603 30.6627C50.4162 26.8239 55.8521 29.0833 57.3486 29.3026V29.3246Z" fill="#3B7CF3"/>
<path d="M40.5508 37.8223V55.0584" stroke="#3B7CF3" stroke-width="2" stroke-linecap="round" stroke-linejoin="round"/>
<rect x="23.5615" y="54.5" width="34" height="14" fill="#111111"/>
<path d="M61.3022 10.0432L66.3964 3.21732M64.16 15.1387L71.5615 10.5M66.3965 20.1098L74.2258 19.7377" stroke="#3B7CF3" stroke-width="2"/>
</svg>
