<svg width="81" height="80" viewBox="0 0 81 80" fill="none" xmlns="http://www.w3.org/2000/svg">
<path d="M9.59079 22.5095C16.5657 8.33501 31.7406 5.20013 39.278 6.09596C58.4591 8.81454 63.8064 24.3975 64.1196 32.1226C64.1272 32.3089 64.1831 32.4846 64.2854 32.6404L71.9926 44.3738C72.7872 45.5837 72.0734 47.2109 70.645 47.4454L65.2467 48.3319V60.0042C65.2467 61.661 63.9036 63.0042 62.2467 63.0042H52.8102V74.0433H12.4119C15.1311 66.369 17.0232 58.4708 17.7365 55.3187C15.7243 54.089 13.3484 51.5436 12.4119 50.4246C5.24764 39.6782 7.27732 27.2111 9.59079 22.5095Z" fill="#111111"/>
<path d="M21.7098 31.5355L30.4329 21.9409L36.4813 32.4171L48.0601 25.732" stroke="#C4C7E8"/>
<circle cx="36.8183" cy="33.2498" r="3.0617" transform="rotate(15 36.8183 33.2498)" fill="#3B7CF3"/>
<circle cx="49.0648" cy="25.492" r="3.0617" transform="rotate(15 49.0648 25.492)" fill="#E1E2ED"/>
<circle cx="20.8158" cy="32.0232" r="3.0617" transform="rotate(15 20.8158 32.0232)" fill="#E1E2ED"/>
<circle cx="30.5927" cy="21.9334" r="3.0617" transform="rotate(15 30.5927 21.9334)" fill="#3B7CF3"/>
</svg>
