<svg width="80" height="80" viewBox="0 0 80 80" fill="none" xmlns="http://www.w3.org/2000/svg">
<path d="M58.6233 65.4077C58.6233 60.7556 54.852 56.9844 50.2 56.9844H9.93701C5.28493 56.9844 1.51367 60.7556 1.51367 65.4077C1.51367 70.0598 5.28493 73.8311 9.93701 73.8311H50.2C54.852 73.8311 58.6233 70.0598 58.6233 65.4077Z" fill="#E1E2ED"/>
<path d="M17.2847 65.3535H43.3998" stroke="white"/>
<circle cx="15.7404" cy="65.4076" r="2.5" transform="rotate(15 15.7404 65.4076)" fill="#111111"/>
<circle cx="30.0685" cy="65.4076" r="2.5" transform="rotate(15 30.0685 65.4076)" fill="#3B7CF3"/>
<circle cx="44.1726" cy="65.4076" r="2.5" transform="rotate(15 44.1726 65.4076)" fill="#111111"/>
<path d="M18.4204 20.0055V56.8857H41.7166V20.0055C41.7166 13.5725 36.5016 8.35742 30.0685 8.35742C23.6354 8.35742 18.4204 13.5725 18.4204 20.0055Z" fill="#111111"/>
<path d="M59.9471 23.9153L56.1696 34.2108L28.7684 30.4126C21.5975 29.4186 17.1934 22.0375 19.724 15.2549C22.2025 8.61203 30.1113 5.86101 36.1772 9.53166L59.9471 23.9153Z" fill="#111111"/>
<path d="M49.2426 24.0015C45.7949 31.5892 49.1511 40.5351 56.7388 43.9828C62.8597 46.764 69.8644 45.1176 74.1538 40.394L62.8169 35.2428L66.6385 26.8323L77.9753 31.9835C78.7121 25.6456 75.3448 19.2865 69.2239 16.5053C61.6362 13.0576 52.6902 16.4138 49.2426 24.0015Z" fill="#3B7CF3"/>
</svg>
