<svg width="178" height="44" viewBox="0 0 178 44" fill="none" xmlns="http://www.w3.org/2000/svg">
<g clip-path="url(#clip0_807_16751)">
<path d="M117.061 34.6953L119.118 40.587L121.428 34.6953H123.612L123.805 34.8922V42.2227C123.442 42.5417 122.483 42.5365 122.135 42.2227V36.7905L119.895 42.4275L118.344 42.2923L116.357 36.7905V42.2227C115.995 42.5417 115.036 42.5365 114.688 42.2227V34.8922L114.88 34.6953H117.064H117.061Z" fill="white"/>
<path d="M114.943 17.4147V22.3245C114.943 22.6225 115.625 24.3514 115.908 24.484C116.15 24.4748 116.386 23.9352 116.47 23.7488C116.798 23.0111 116.953 21.9622 117.004 21.1522C117.04 20.5851 117.088 19.1594 116.995 18.6632C116.962 18.4886 116.903 18.3507 116.738 18.2667C116.264 18.0265 116.137 18.4951 116.228 17.416H118.669V22.0632C118.669 22.3901 119.033 23.5401 119.205 23.8722C119.556 24.5522 120.158 24.9881 120.72 25.4659C119.8 26.0724 119.953 26.7104 118.923 25.8598C118.477 25.4922 118.065 25.013 117.832 24.4827L117.129 25.4672C116.016 27.0938 114.678 25.8532 114.171 24.4827L113.907 24.5627C113.68 25.3412 113.026 25.9976 112.289 26.2851C111.996 26.3429 111.089 25.4594 111.22 25.269C112.875 24.4604 113.196 22.4518 113.272 20.7492C113.31 19.9261 113.572 17.9044 112.374 18.1985V17.4121H114.943V17.4147Z" fill="white"/>
<path d="M172.156 34.6953C172.968 34.7688 174.153 35.0576 174.743 35.6589C176.127 37.0675 175.987 41.1686 173.977 42.0507C173.648 42.1951 172.727 42.4196 172.413 42.4196H168.238V34.6953H172.156ZM169.908 40.9795H172.541C172.578 40.9795 173.117 40.6566 173.186 40.5896C174.007 39.802 173.973 37.2473 173.109 36.4715C173.044 36.4124 172.573 36.1354 172.54 36.1354H169.906V40.9795H169.908Z" fill="white"/>
<path d="M84.1198 34.6953V36.1354H79.4328C78.9521 36.1354 78.8133 37.2539 79.2027 37.5821C80.0278 38.2752 82.5069 37.3313 83.8332 38.3264C84.9295 39.1495 84.8125 41.4062 83.5672 42.0521C83.3281 42.1768 82.3566 42.4183 82.1291 42.4183H77.6335L77.4613 42.2017C77.4253 42.0363 77.433 41.867 77.433 41.6989C77.433 41.4311 77.3906 41.1449 77.6335 40.9795H82.1291C82.6946 40.9795 83.2999 39.3412 81.615 39.1469C80.3877 39.0051 78.9444 39.4738 77.8571 38.6572C76.7699 37.8407 76.9228 35.6812 78.1219 35.0616C78.3249 34.9566 79.2528 34.6953 79.4315 34.6953H84.1185H84.1198Z" fill="white"/>
<path d="M97.4127 40.9784C98.2866 40.7907 98.2185 39.3257 97.1479 39.1537C95.783 38.9331 93.043 39.7142 92.5277 37.7096C91.4944 33.6847 97.2276 34.8623 99.4034 34.6942V36.1343H94.7151C94.3989 36.1343 94.1612 36.9246 94.3321 37.3106C94.9066 38.5997 98.7698 36.8065 99.6849 39.0539C100.142 40.179 99.8237 41.7832 98.5976 42.1862C98.4202 42.2439 97.5489 42.4172 97.4114 42.4172H92.8528V40.9771C94.1534 40.7841 96.2084 41.2357 97.4114 40.9771L97.4127 40.9784Z" fill="white"/>
<path d="M129.776 40.9784C130.65 40.7907 130.582 39.3257 129.511 39.1537C128.146 38.9331 125.406 39.7142 124.891 37.7096C123.858 33.6847 129.591 34.8623 131.767 34.6942V36.1343H127.078C126.762 36.1343 126.524 36.9246 126.695 37.3106C127.27 38.5997 131.133 36.8065 132.048 39.0539C132.506 40.179 132.187 41.7832 130.961 42.1862C130.784 42.2439 129.912 42.4172 129.775 42.4172H125.216V40.9771C126.517 40.7841 128.572 41.2357 129.775 40.9771L129.776 40.9784Z" fill="white"/>
<path d="M145.479 34.7321C148.642 34.3422 150.575 35.8479 150.258 39.2112C149.986 42.0875 147.446 42.8476 144.992 42.224C142.904 41.6937 142.274 40.1078 142.421 38.0297C142.558 36.0724 143.564 34.9684 145.479 34.7334V34.7321ZM145.601 36.0343C143.762 36.4163 143.615 40.8561 145.956 41.1095C148.298 41.3628 148.823 39.1272 148.245 37.2066C147.885 36.0094 146.694 35.8072 145.601 36.0343Z" fill="white"/>
<path d="M76.8004 17.1523V18.4612H72.9474C72.851 20.9974 75.2672 22.2104 77.4417 22.2577C77.5098 22.3155 76.7053 23.3709 76.6449 23.4064C75.7131 23.9604 72.3794 22.1067 71.9835 20.9502C71.4296 22.2131 69.1767 23.4707 67.871 23.4471C67.3196 23.4366 66.7027 22.771 66.5254 22.2577C68.6768 22.2354 71.2137 20.9804 71.0197 18.4612H67.1667V17.1523H76.7991H76.8004Z" fill="white"/>
<path d="M163.617 29.3916C163.569 29.6161 163.046 30.1977 162.779 30.2397L155.519 30.1845C154.209 29.8196 155.425 26.3906 154.54 26.0756C154.002 25.8852 153.907 26.3906 153.984 25.2695H163.424L163.617 25.4664C163.455 26.5849 163.835 28.365 163.617 29.3942V29.3916ZM161.819 26.577H156.682V28.8678L156.875 29.0647H161.626L161.819 28.8678V26.577Z" fill="white"/>
<path d="M109.163 37.8368H113.466L113.638 38.0534C113.674 38.2188 113.666 38.3882 113.666 38.5562C113.666 38.824 113.709 39.1102 113.466 39.2756H109.163C108.995 39.9438 109.726 40.9769 110.383 40.9769H113.465L113.637 41.1935C113.673 41.3589 113.665 41.5283 113.665 41.6963C113.665 41.9641 113.708 42.2503 113.465 42.4157H110.896C110.572 42.4157 109.508 42.2083 109.164 42.0849C106.597 41.1673 106.593 36.4531 108.86 35.1036C109.121 34.9487 110.117 34.6914 110.382 34.6914H113.463L113.636 34.908C113.672 35.0734 113.664 35.2428 113.664 35.4108C113.664 35.6786 113.706 35.9648 113.463 36.1302H110.125C109.709 36.1302 108.897 37.3301 109.162 37.8315L109.163 37.8368Z" fill="white"/>
<path d="M163.616 16.7598V24.614H161.947V17.8717C161.947 17.5816 161.446 17.3531 161.176 17.4135V24.614H159.506V21.6026L157.963 21.5277V20.1625H159.506V17.8717C159.506 17.5487 159.013 17.4148 158.749 17.4004L158.737 16.7598H163.616Z" fill="white"/>
<path d="M101.298 17.8422C106.579 17.0729 107.294 25.2239 102.001 25.3644C97.2461 25.4904 96.7745 18.5012 101.298 17.8422ZM101.553 19.1471C99.1366 19.5751 99.4502 24.2827 102.035 24.1002C104.689 23.9125 104.38 18.6469 101.553 19.1471Z" fill="white"/>
<path d="M90.671 17.6758V18.9846H88.7446V21.7992C88.7446 21.9856 89.0646 22.9597 89.1609 23.2078C89.5452 24.1937 90.3639 25.2176 91.4409 25.4014C91.4781 25.4513 90.6967 26.2731 90.6132 26.3243C89.7149 26.8625 88.1649 24.854 87.782 24.0939C87.2023 25.131 86.3721 26.298 85.1448 26.512L84.2516 25.5957C84.1642 25.3804 84.8736 25.1796 85.0844 25.0076C85.7873 24.4339 86.8181 22.8415 86.8181 21.9318V18.9859H84.8916V17.6771H90.671V17.6758Z" fill="white"/>
<path d="M172.349 17.4154V20.3612C172.349 20.6527 172.716 21.6097 172.885 21.909C173.693 23.3517 175.666 24.0225 177.228 23.9621L176.195 25.2093C174.289 25.162 172.314 24.2772 171.385 22.5234C170.432 24.2496 168.505 25.0977 166.627 25.2158L165.541 23.9621C167.462 24.0107 169.492 23.1088 170.188 21.1699C170.382 20.6277 170.689 18.6651 170.161 18.396C169.633 18.1269 169.574 18.5995 169.651 17.4141H172.349V17.4154Z" fill="white"/>
<path d="M145.379 17.4141V20.3599C145.379 20.5621 145.675 21.4062 145.787 21.6451C146.552 23.2887 148.562 24.016 150.26 23.9608L149.226 25.208C147.32 25.1607 145.353 24.2641 144.416 22.522C143.464 24.2483 141.536 25.0964 139.658 25.2145L138.572 23.9608C140.485 24.0068 142.546 23.1075 143.219 21.1699C143.41 20.6251 143.725 18.6664 143.191 18.396C142.658 18.1256 142.604 18.5995 142.681 17.4141H145.379Z" fill="white"/>
<path d="M157.836 17.5456V18.8544H154.24V20.1632H157.193V21.4721H154.24V22.6496H158.35V23.9585H153.534C153.501 23.9585 153.016 23.6749 152.964 23.6237C152.068 22.7796 152.654 19.9375 152.439 18.7901C152.406 18.6142 152.347 18.4777 152.182 18.3936C151.708 18.1534 151.581 18.6221 151.672 17.543H157.837L157.836 17.5456Z" fill="white"/>
<path d="M109.42 16.7598V30.2432H107.622V17.7417C107.622 17.4713 106.476 17.5711 106.85 16.7598H109.42Z" fill="white"/>
<path d="M136.004 16.7598V30.2432H134.206V17.7417C134.206 17.4713 133.06 17.5711 133.434 16.7598H136.004Z" fill="white"/>
<path d="M129.454 17.4141V21.4075C129.454 21.5348 129.774 22.3698 129.858 22.5667C130.356 23.7324 131.522 24.9625 132.793 25.1397C132.866 25.2171 132.077 26.2214 132.021 26.2582C131.422 26.6467 128.677 24.4846 128.682 23.5683C128.287 23.5316 128.259 24.033 128.042 24.2877C127.589 24.8207 125.803 26.5811 125.092 26.2569C124.826 26.1348 124.604 25.5165 124.318 25.334C124.271 25.0517 124.374 25.183 124.496 25.1279C126.316 24.3087 127.465 22.9841 127.655 20.8824C127.731 20.0422 127.977 17.9011 126.764 18.0639L126.758 17.4154H129.455L129.454 17.4141Z" fill="white"/>
<path d="M78.3412 24.6133V25.9234H72.9473V30.2424H71.1494V25.9234H65.627V24.6133H78.3412Z" fill="white"/>
<path d="M138.766 42.4177C138.459 42.3862 137.623 42.1774 137.33 42.0488C134.993 41.0301 135.048 36.06 137.457 35.0596C137.727 34.948 138.781 34.6934 139.024 34.6934H141.977L142.149 34.91C142.185 35.0754 142.177 35.2447 142.177 35.4128C142.177 35.6806 142.22 35.9667 141.977 36.1322H138.766C138.515 36.1322 137.781 36.8043 137.665 37.1049C137.328 37.9805 137.432 40.9763 138.766 40.9763H141.977L142.149 41.1929C142.185 41.3583 142.177 41.5276 142.177 41.6957C142.177 41.9635 142.22 42.2496 141.977 42.4151C140.942 42.3389 139.782 42.5188 138.766 42.4151V42.4177Z" fill="white"/>
<path d="M93.6233 16.7598V30.2432H92.0823V22.6501H90.0273V21.3413H91.8896C92.0168 21.2586 92.0554 21.1602 92.0823 21.0144C92.1543 20.6127 92.1517 18.4086 92.0785 18.0069C91.9474 17.2875 91.0426 17.6774 91.3112 16.7598H93.6233Z" fill="white"/>
<path d="M73.7186 34.6953V36.1354H70.3154C70.1034 36.1354 69.4454 36.7091 69.3258 36.9585C68.9326 37.7777 68.993 39.9411 69.6703 40.5896C69.7397 40.6566 70.2782 40.9795 70.3154 40.9795H73.7186V42.4196H70.4439C70.1188 42.4196 69.1549 42.1453 68.8323 41.968C66.6565 40.7695 66.7002 36.0829 69.029 35.0852C69.3297 34.9566 70.2949 34.6953 70.5725 34.6953H73.7186Z" fill="white"/>
<path d="M122.776 16.7591V30.2425H121.107V17.871C121.107 17.7004 120.459 17.296 120.213 17.4063L120.207 16.7578H122.776V16.7591Z" fill="white"/>
<path d="M96.0647 16.7598V30.2432H94.5237V17.8717C94.5237 17.5487 94.0302 17.4148 93.7668 17.4004L93.7539 16.7598H96.0659H96.0647Z" fill="white"/>
<path d="M64.8558 16.4998C62.2687 20.4381 62.2327 26.1092 64.8558 30.0488C63.7672 30.3744 63.4948 29.9044 62.9537 29.1076C60.7034 25.7929 60.6905 21.2231 62.7481 17.8191C63.3123 16.8844 63.6207 16.2727 64.8571 16.5011L64.8558 16.4998Z" fill="white"/>
<path d="M106.98 34.6953V36.1354H104.282V42.4196H102.613V36.1354H100.237L100.064 35.9188C100.028 35.7534 100.036 35.5841 100.036 35.416C100.036 35.1482 99.9936 34.862 100.237 34.6966H106.979L106.98 34.6953Z" fill="white"/>
<path d="M167.597 34.6953V36.1354H164.899V42.4196H163.23V36.1354H160.854L160.682 35.9188C160.646 35.7534 160.653 35.5841 160.653 35.416C160.653 35.1482 160.611 34.862 160.854 34.6966H167.596L167.597 34.6953Z" fill="white"/>
<path d="M92.4677 34.6953L89.3845 39.0813V42.4183H87.7151V38.95L84.7617 34.6953H86.624L88.5504 37.7042L90.6054 34.6953H92.4677Z" fill="white"/>
<path d="M79.2398 30.1124C79.6203 29.1751 80.1549 28.3441 80.4621 27.3661C81.5403 23.9385 81.264 19.5066 79.1113 16.562C80.1883 16.2496 80.4081 16.6605 80.9376 17.4495C83.1789 20.7852 83.2753 25.2447 81.2691 28.7117C80.7731 29.5689 80.3669 30.3553 79.2398 30.1111V30.1124Z" fill="white"/>
<path d="M151.031 27.4941H137.803V28.803H151.031V27.4941Z" fill="white"/>
<path d="M178 27.4941H164.771V28.803H178V27.4941Z" fill="white"/>
<path d="M64.728 34.6947C65.0917 34.7656 66.2496 34.5031 66.3794 34.91C66.2843 36.656 66.6352 38.8024 66.2368 40.488C65.6764 42.8536 62.6884 42.3442 60.875 42.4204V40.9803H63.8939C64.309 40.9803 64.7293 39.9498 64.7293 39.6058V34.6961L64.728 34.6947Z" fill="white"/>
<path d="M161.689 40.979V42.4191C160.212 42.3482 157.632 42.7328 156.701 41.2848C156.628 41.1706 156.295 40.4473 156.295 40.3895V34.6947C156.659 34.7656 157.817 34.5031 157.946 34.91C158.149 36.5129 157.733 38.5766 157.972 40.1204C158.027 40.4722 158.507 40.9803 158.798 40.9803H161.688L161.689 40.979Z" fill="white"/>
<path d="M153.6 43.9885L154.115 42.4854L153.719 42.3462L153.727 40.8457L155.02 40.9035C155.547 41.2789 154.599 43.4332 154.247 43.7981C154.047 44.0068 153.868 44.0134 153.6 43.9872V43.9885Z" fill="white"/>
<path d="M152.445 40.8457V42.4184L151.152 42.3606L151.088 40.9691L152.445 40.8457Z" fill="white"/>
<path d="M176.457 42.4184V40.8457L177.75 40.9035L177.814 42.295L176.457 42.4184Z" fill="white"/>
<path d="M37.3409 0H46.5531L35.3334 24.831H0L3.66405 16.3768H30.0501L37.3409 0Z" fill="white"/>
<path opacity="0.7" d="M56.3929 16.3398H30.0493L19.1973 41.1091H45.7195L49.2923 32.7022L32.13 32.7639L35.3327 24.8308H52.8047L56.3929 16.3398Z" fill="white" fill-opacity="0.8"/>
</g>
<defs>
<clipPath id="clip0_807_16751">
<rect width="178" height="44" fill="white"/>
</clipPath>
</defs>
</svg>
